<svg width="25" height="25" viewBox="0 0 25 25" fill="none" xmlns="http://www.w3.org/2000/svg">
<path d="M2.84518 0.48815C2.19431 -0.162717 1.13903 -0.162717 0.488162 0.48815C-0.162721 1.13902 -0.162721 2.1943 0.488162 2.84517L10.1127 12.4697L0.488263 22.0942C-0.162621 22.745 -0.162621 23.8004 0.488263 24.4512C1.13913 25.1021 2.19441 25.1021 2.84528 24.4512L12.4697 14.8267L22.0942 24.4512C22.7451 25.1021 23.8004 25.1021 24.4512 24.4512C25.1021 23.8004 25.1021 22.745 24.4512 22.0942L14.8267 12.4697L24.4512 2.84517C25.1022 2.1943 25.1022 1.13902 24.4512 0.48815C23.8004 -0.162717 22.7452 -0.162717 22.0942 0.48815L12.4697 10.1127L2.84518 0.48815Z" fill="white"/>
</svg>
